<?xml version="1.0" encoding="UTF-8"?>
<svg id="Layer_1" data-name="Layer 1" xmlns="http://www.w3.org/2000/svg" viewBox="0 0 1200.37 1179.03">
  <defs>
    <style>
      .cls-1 {
        fill: #d7644b;
      }
    </style>
  </defs>
  <path class="cls-1" d="M786.3,341.12l-62.08,1.27-62.08-.61-62.08,2.09-62.08-1.38-62.07.43-62.07-.45-62.06-2.73-62.33,1.27,9.42,60.71,17.23,57.7,22.69,56.97,40.88,45.83,47.18,38.86,53.4,30.05,59.79,12.56,60.06,12.11,60.05-12.15,58.31-16.11,55.75-25.18,43.08-43.38,41.4-44.41,28.22-53.98,20.97-57.58,3.04-62.52-62.52,2.01-62.1-1.39ZM332.14,418.07c-.64.93-7.32,6.27-8.32,6.56-.47.13-1,.36-1.14-.33-.12-.58,7.15-7.83,8.15-7.98.34-.05,1.72.28,1.77.35.35.51-.18,1.01-.45,1.4ZM343.94,429.86c-1.07.92-2.09,2.32-3.46,3.13-.56.33-.87.81-1.68.6,1.21-1.21,2.58-2.25,3.75-3.51.29-.31-.02-.92.05-.97.24-.18.94-.05,1.37-.47.43-.42.41-1.31.69-1.57.07-.07.51.17.74.05.99-.53.87-1.3,2.49-.55-1.11,1.3-2.67,2.17-3.95,3.28ZM557.92,357.98l-.78-1.83,1.39-.87c.7.6,1.13,1.52,1.02,2.45l-1.63.24ZM582.71,635.84l.41-1.65-1.24.41-.33-1.39c.34-.84,1.09-1.22,1.98-1.09l-.22.84,1.46,1.22c-1.9-.43-.47,1.14-2.06,1.65ZM590.2,442.01l-.87-2.44,1.25-.23,1.23,2.29-1.61.38ZM594.77,449.4c-.09-.05-.89-1.5-.85-1.72l1.35-1.07,1.5,2.24c-.39.63-1.38.9-1.99.54ZM658.75,554.03c-.96-.97,5.85-4.44,5.79-5.78l.33,1.17-6.12,4.61ZM662.06,555.26l-1.23-.62c.63-.43,4.82-5.36,5.36-4.75.54,2.92-4.57,2.67-4.13,5.37ZM670.47,567.4c.82-.87,2.81-2.65,3.78-3.45.47-.38.67-1,1.45-.82.18.83-.18,1.1-.6,1.67-.55.74-5.76,5.98-6.42,5.35.15-.86,1.21-2.13,1.8-2.75ZM675.43,569.87c-.61.59-3.75,4.25-4.68,3.58-.17-.12-.45-1.54-.23-2.05.45-1.03,5.33-5.08,6.6-5.79,2.39,2.11-.32,2.94-1.69,4.27ZM755.12,494.32c.68-.6,2.73-3.38,3.59-3.04l1.22,2.6c-1.89,1.69-3.17,3.8-4.82.44ZM896.36,378.58l.87.43.37,1.21c-1.07.58-2.23,2.03-3.04,2.59-1.47,1.02-4.27,2.14-5.63,2.38l-.46,1.42-4.07,1.3,11.96-9.34ZM857.95,506.51l.42,2.06c-2.18.03-5.51,5.56-6.02.81.96-.3,4.96-3.55,5.6-2.88ZM290.54,307.85l-.59-44.1,12.29-48.29,44.08,18.13,40.94,35.42,34.01,43.54-65.96,1.55-64.76-6.24ZM405.76,235.4l29.64,45.28,12.67,34.17,87.38-1.01-34.64-56.32-47.58-42.59-39.38-30.65-42.23-27.4-18.99-30.78-35.32,63.39,42.65,16.75,45.79,29.16ZM489.72,284.2l.23,2.04c-.59.76-1.23,1.43-2.29,1.26.07-1.47.16-3.1,2.06-3.3ZM468.44,240.82l1.45,1.84c-1.76,2.11-3.61-.32-1.45-1.84ZM466.17,244.12c-.37,2.04-1.52,3.58-3.72,3.72-.85-2.49,1.29-4.47,3.72-3.72ZM447.3,234.24c1.59,1.03.2,2.25-1.16,2.44l-1.06-2.05,2.21-.39ZM349.96,182.58c-.6.91-3.31,3.35-4.29,4.18-.22.19-1.42,1.08-1.49.99-.12-.62.07-.97.39-1.46.23-.36,4.83-4.7,5.18-4.72.35-.02.62.39.21,1.02ZM435.69,159.44l38.5,28.66,55.7,53,28.85,73.55,48.01-6.34-12.29-47.82-25.59-45.94-36.57-38.07-42.7-53.39-29.64-61.96-2.53-22.8-47.16,22.8-34.99,39.22,21.34,32.09,39.08,27ZM441.11,77.85c.84-.88.24-1.72,2.26-2.28.48-.13.59-.46,1.02.19,1.01,1.55.91,3.56-.21,4.96l-1.03-.82c-1,2.5-2.81,2.45-4.89,3.79-1.11.72-1.81,2-3.17,2.41l-.2-1.67c1.91-2.36,4.12-4.39,6.21-6.57ZM424.56,63.37c1.3-1.35,3.9-3.73,5.37-4.96.46-.39.67-1,1.45-.82l-7.57,8.54-1.52.55c-.3-.27,1.96-2.98,2.27-3.3ZM487.1,22.47l47.16-14.88L584.79-.42l-5.19,30.04,9.35,65.88,11.11,65.58,11.53,65.5-3.93.59-52.88-70.94-43.8-62.3-23.87-71.45ZM617.32,1.83l-5.2,62.72,14.76,61.89,2.08,27.01,24.56-46.13,34.42-41.32,48.32-35.38-60.87-20.52L613.8.37l3.52,1.46ZM650.69,59.42c1.23,1.09.83,3.25-1.03,2.88l-.39-1.79,1.41-1.09ZM649.28,55.01l-1.69.69.21,1.65c-.94-.44-3.25-1.89-3.06-3.04.07-.45,3.83-3.48,4.09-3.16l.45,3.86ZM645.11,43.72l1.26.18c.41.33.46.75.41,1.24-.09.9-5.1,4.83-5.8,4.35l-.24-2.07,4.73-2.95-.37-.77ZM671.8,130.26l-21.36,50.94-3.67,14.6.82-.45c.42,1.53.21,1.93-1.03,2.89l-.28-.51-9.32,37.07,3.13.48-2.36,52.4-2.46,23.1,1.18.05-.45-.08,38.88-1.3,17.64-60.68,31.13-56.5,46.96-44.28,50.37-57.9-58.14-40.25-49.88,43.92-41.15,36.49ZM738.32,115.21c1.25-1.22,4.08-3.38,5.57-4.35,1.19-.78,1.21-.34,1.46,1.04l-8.07,4.95c-.15-.82.55-1.16,1.04-1.64ZM733.07,92.95l.72,2.01-3.54,2.06-.64-2.5,3.46-1.57ZM749.75,208l-30.08,48-11.18,53.03,51.21,3.99,34.61-54.89-.44-2.14,2.99-1.91,1.51-2.4,57.9-41.86,33.27-17.01-49.73-81.47-48.96,58.33-41.1,38.34ZM876.09,183.82l.9,3.03-1.85.67-1.47-2.24,2.42-1.46ZM871.17,176.94c2.62,1.37-.42,3.75-1.58,3.07-.08-.05-.89-1.55-.86-1.75.09-.57,1.74-1.69,2.44-1.32ZM781.21,225.03c-.72.4-.72.72-1.36-.13l5-3.67,1.61-.66c-1.36,1.43-3.56,3.53-5.25,4.46ZM809.59,226.15c0,1.44-19.48,13.82-22.31,15.08-.19-.81.42-.98.86-1.41,5.12-4.97,12.76-9.54,18.72-13.53.97-.65.73-2.4,2.72-.15ZM799.68,208.59c.71.61-.54.9-.77,1.07-1.57,1.1-3.62,2.41-5.42,3.06.39-.92,5.79-4.48,6.2-4.13ZM835.56,255.83l64.05-36.02,10.06,89.84-58.16,1.72-59.53,1.09,43.59-56.63ZM646.77,195.81l-.48,1.92-.69-1.28,1.17-.64ZM786.3,341.12l-62.08,1.27-62.08-.61-62.08,2.09-62.08-1.38-62.07.43-62.07-.45-62.06-2.73-62.33,1.27,9.42,60.71,17.23,57.7,22.69,56.97,40.88,45.83,47.18,38.86,53.4,30.05,59.79,12.56,60.06,12.11,60.05-12.15,58.31-16.11,55.75-25.18,43.08-43.38,41.4-44.41,28.22-53.98,20.97-57.58,3.04-62.52-62.52,2.01-62.1-1.39ZM332.14,418.07c-.64.93-7.32,6.27-8.32,6.56-.47.13-1,.36-1.14-.33-.12-.58,7.15-7.83,8.15-7.98.34-.05,1.72.28,1.77.35.35.51-.18,1.01-.45,1.4ZM343.94,429.86c-1.07.92-2.09,2.32-3.46,3.13-.56.33-.87.81-1.68.6,1.21-1.21,2.58-2.25,3.75-3.51.29-.31-.02-.92.05-.97.24-.18.94-.05,1.37-.47.43-.42.41-1.31.69-1.57.07-.07.51.17.74.05.99-.53.87-1.3,2.49-.55-1.11,1.3-2.67,2.17-3.95,3.28ZM557.92,357.98l-.78-1.83,1.39-.87c.7.6,1.13,1.52,1.02,2.45l-1.63.24ZM582.71,635.84l.41-1.65-1.24.41-.33-1.39c.34-.84,1.09-1.22,1.98-1.09l-.22.84,1.46,1.22c-1.9-.43-.47,1.14-2.06,1.65ZM590.2,442.01l-.87-2.44,1.25-.23,1.23,2.29-1.61.38ZM594.77,449.4c-.09-.05-.89-1.5-.85-1.72l1.35-1.07,1.5,2.24c-.39.63-1.38.9-1.99.54ZM658.75,554.03c-.96-.97,5.85-4.44,5.79-5.78l.33,1.17-6.12,4.61ZM662.06,555.26l-1.23-.62c.63-.43,4.82-5.36,5.36-4.75.54,2.92-4.57,2.67-4.13,5.37ZM670.47,567.4c.82-.87,2.81-2.65,3.78-3.45.47-.38.67-1,1.45-.82.18.83-.18,1.1-.6,1.67-.55.74-5.76,5.98-6.42,5.35.15-.86,1.21-2.13,1.8-2.75ZM675.43,569.87c-.61.59-3.75,4.25-4.68,3.58-.17-.12-.45-1.54-.23-2.05.45-1.03,5.33-5.08,6.6-5.79,2.39,2.11-.32,2.94-1.69,4.27ZM755.12,494.32c.68-.6,2.73-3.38,3.59-3.04l1.22,2.6c-1.89,1.69-3.17,3.8-4.82.44ZM896.36,378.58l.87.43.37,1.21c-1.07.58-2.23,2.03-3.04,2.59-1.47,1.02-4.27,2.14-5.63,2.38l-.46,1.42-4.07,1.3,11.96-9.34ZM857.95,506.51l.42,2.06c-2.18.03-5.51,5.56-6.02.81.96-.3,4.96-3.55,5.6-2.88Z"/>
  <g>
    <g>
      <path class="cls-1" d="M287.07,1014.26h-130.3v-77.34h-26.48v77.34H0v-243.87h130.3v77.34h26.48v-77.34h130.3v243.87Z"/>
      <path class="cls-1" d="M590.13,858.07c0,12.62-1.58,29.98-3.55,36.29h-136.86c1.97,15.38,16.17,20.12,52.06,20.12,27.61,0,47.72-2.76,74.55-9.47l3.94,107.28c-29.19,6.31-61.92,9.86-98.6,9.86-120.69,0-170.39-38.65-170.39-131.74s45.36-128.58,147.51-128.58c89.93,0,131.34,30.37,131.34,96.24ZM448.54,863.59h33.13c-.39-25.24-3.94-32.34-16.57-32.34s-16.17,7.1-16.57,32.34Z"/>
      <path class="cls-1" d="M785.98,770.39c87.45,0,113.23,14.63,113.23,64.1,0,33.45-11.85,48.77-43.2,56.44v1.74c38.32,6.97,51.91,22.3,51.91,57.83,0,49.47-26.13,63.76-117.06,63.76h-178.38v-243.87h173.5ZM742.78,827.17v39.72h5.57c17.42,0,23.69-5.23,23.69-19.86s-6.27-19.86-23.69-19.86h-5.57ZM742.78,918.1v39.72h5.57c17.42,0,23.69-5.23,23.69-19.86s-6.27-19.86-23.69-19.86h-5.57Z"/>
      <path class="cls-1" d="M1200.37,858.07c0,12.62-1.58,29.98-3.55,36.29h-136.86c1.97,15.38,16.17,20.12,52.06,20.12,27.61,0,47.72-2.76,74.55-9.47l3.94,107.28c-29.19,6.31-61.92,9.86-98.6,9.86-120.69,0-170.39-38.65-170.39-131.74s45.36-128.58,147.51-128.58c89.93,0,131.34,30.37,131.34,96.24ZM1058.77,863.59h33.13c-.39-25.24-3.94-32.34-16.57-32.34s-16.17,7.1-16.57,32.34Z"/>
    </g>
    <g>
      <path class="cls-1" d="M245.02,1128.5c.09-.28.16-.59.21-.92.05-.33.07-.73.07-1.2,0-.75-.64-1.5-1.9-2.26-1.27-.75-2.97-1.43-5.08-2.05-2.12-.61-4.54-1.13-7.27-1.55-2.73-.42-5.6-.63-8.61-.63-2.82,0-5.79.33-8.89.99-3.11.66-5.95,1.74-8.54,3.25-2.59,1.51-4.71,3.51-6.35,6-1.65,2.49-2.47,5.53-2.47,9.1s.82,6.61,2.47,9.11c1.65,2.49,3.76,4.5,6.35,6,2.59,1.51,5.43,2.59,8.54,3.25,3.11.66,6.07.99,8.89.99,1.22,0,3.15-.21,5.79-.63,2.63-.42,5.27-1.01,7.91-1.76,2.63-.75,4.96-1.6,6.99-2.54,2.02-.94,3.03-1.93,3.03-2.96,0-.47-.1-.85-.28-1.13-.19-.28-.38-.61-.56-.99l1.55-.99,14.54,22.16-1.69.99c-.19-.47-.45-.78-.78-.92-.33-.14-.73-.21-1.2-.21-.66,0-1.98.4-3.95,1.2-1.98.8-4.54,1.65-7.69,2.54-3.16.9-6.85,1.69-11.08,2.4-4.24.71-8.99,1.06-14.26,1.06-5.65,0-11.25-.73-16.8-2.19-5.55-1.46-10.54-3.76-14.96-6.92-4.42-3.15-8-7.1-10.73-11.86-2.73-4.75-4.09-10.28-4.09-16.59s1.36-11.83,4.09-16.59c2.73-4.75,6.3-8.7,10.73-11.86,4.42-3.15,9.41-5.53,14.96-7.13,5.55-1.6,11.15-2.4,16.8-2.4s10.52.31,14.61.92c4.09.61,7.55,1.3,10.38,2.05,2.73.75,4.85,1.39,6.35,1.91,1.5.52,2.63.78,3.39.78.85,0,1.55-.37,2.12-1.13l1.55.42-12.7,23.29-1.41-.99Z"/>
      <path class="cls-1" d="M301.77,1173.25c0,.47.16.82.49,1.06.33.24,1.01.35,2.05.35v1.69h-24.99v-1.69c1.03-.19,1.79-.49,2.26-.92.47-.42.94-1.2,1.41-2.33.19-.47.66-1.74,1.41-3.81.75-2.07,1.74-4.68,2.96-7.83,1.22-3.15,2.59-6.66,4.09-10.52,1.5-3.86,3.01-7.79,4.52-11.79,1.5-4,2.98-7.9,4.45-11.72,1.46-3.81,2.75-7.22,3.88-10.23,1.13-3.01,2.05-5.46,2.75-7.34.71-1.88,1.06-2.87,1.06-2.96,0-.47-.31-.8-.92-.99-.61-.19-1.25-.33-1.9-.42v-1.69h36.84v1.69c-.75.09-1.36.24-1.83.42-.47.19-.71.66-.71,1.41,0,.19.44,1.41,1.34,3.67.89,2.26,2.05,5.2,3.46,8.82,1.41,3.62,3.03,7.72,4.87,12.28,1.84,4.57,3.74,9.22,5.72,13.97,1.98,4.75,3.88,9.39,5.72,13.9,1.83,4.52,3.5,8.57,5.01,12.14.75,1.69,1.39,2.82,1.91,3.39.52.56,1.2.85,2.05.85v1.69h-27.81v-1.69c1.79-.09,2.68-.66,2.68-1.69,0-.09-.23-.73-.7-1.91-.47-1.18-.99-2.49-1.55-3.95-.56-1.46-1.11-2.84-1.62-4.16-.52-1.32-.83-2.21-.92-2.68h-33.46c-.94,2.54-1.69,4.61-2.26,6.21-.56,1.6-1.01,2.87-1.34,3.81-.33.94-.56,1.62-.71,2.05-.14.42-.21.73-.21.92ZM336.07,1148.97l-13.69-33.6-12.56,33.6h26.26Z"/>
      <path class="cls-1" d="M464.53,1122.71c-.19-1.32-.47-2.21-.85-2.68-.38-.47-.94-.71-1.69-.71h-46.59v12.56h31.34c.75,0,1.32-.21,1.69-.64.37-.42.66-1.29.85-2.61h1.69v23.72h-1.69c-.19-1.6-.47-2.63-.85-3.11-.38-.47-.94-.71-1.69-.71h-31.34v23.57c0,.66.21,1.2.64,1.62.42.42,1.53.73,3.32.92v1.69h-29.64v-1.69c1.79-.19,2.89-.49,3.32-.92.42-.42.64-.96.64-1.62v-65.78c0-.66-.21-1.2-.64-1.62-.42-.42-1.53-.73-3.32-.92v-1.69h72.28c.75,0,1.32-.26,1.69-.78.38-.52.66-1.57.85-3.18h1.69v24.56h-1.69Z"/>
      <path class="cls-1" d="M545.13,1149.25c-.19-.94-.59-1.72-1.2-2.33-.61-.61-1.62-.92-3.03-.92h-26.26v13.13h45.31c.75,0,1.32-.26,1.69-.78.37-.52.66-1.67.85-3.46h1.69v24.14h-1.69c-.19-1.22-.47-1.98-.85-2.26-.38-.28-.94-.42-1.69-.42h-70.44v-1.69c1.79-.19,2.89-.49,3.32-.92.42-.42.64-.96.64-1.62v-65.78c0-.66-.21-1.2-.64-1.62-.42-.42-1.53-.73-3.32-.92v-1.69h70.44c.75,0,1.32-.26,1.69-.78.37-.52.66-1.57.85-3.18h1.69v24.56h-1.69c-.19-1.6-.47-2.66-.85-3.18-.38-.52-.94-.78-1.69-.78h-45.31v11.72h26.26c1.41,0,2.42-.31,3.03-.92s1.01-1.39,1.2-2.33h1.69v22.02h-1.69Z"/>
      <path class="cls-1" d="M652.13,1123.13c0,1.32.33,2.66.99,4.02.66,1.37,1.53,2.59,2.61,3.67,1.08,1.08,2.3,1.98,3.67,2.68,1.36.71,2.7,1.06,4.02,1.06,1.13,0,1.69-.66,1.69-1.98h1.98v12.71h-1.98c0-1.32-.56-1.98-1.69-1.98-1.41,0-2.78.28-4.09.85-1.32.56-2.52,1.36-3.6,2.4-1.08,1.04-1.95,2.24-2.61,3.6-.66,1.37-.99,2.85-.99,4.45,0,1.13.61,1.69,1.83,1.69v1.98h-12.56v-1.98c1.32,0,1.98-.56,1.98-1.69,0-1.5-.35-2.97-1.06-4.38-.7-1.41-1.62-2.61-2.75-3.6-1.13-.99-2.38-1.79-3.74-2.4-1.36-.61-2.66-.92-3.88-.92-1.13,0-1.69.66-1.69,1.98h-1.98v-12.71h1.98c0,1.32.56,1.98,1.69,1.98,1.22,0,2.52-.35,3.88-1.06,1.36-.71,2.61-1.6,3.74-2.68,1.13-1.08,2.05-2.3,2.75-3.67.71-1.36,1.06-2.7,1.06-4.02,0-1.13-.66-1.69-1.98-1.69v-1.98h12.56v1.98c-1.22,0-1.83.56-1.83,1.69Z"/>
      <path class="cls-1" d="M729.63,1106.34c0-.66-.21-1.2-.64-1.62-.42-.42-1.53-.73-3.32-.92v-1.69h53.78c3.86,0,7.39.38,10.59,1.13,3.2.76,5.98,1.91,8.33,3.46,2.35,1.55,4.19,3.58,5.5,6.07,1.32,2.49,1.98,5.48,1.98,8.96,0,4.23-1.27,7.65-3.81,10.23-2.54,2.59-5.79,4.3-9.74,5.15v.28c4.8,1.32,8.73,3.34,11.79,6.07,3.06,2.73,4.59,6.73,4.59,12,0,2.82-.54,5.51-1.62,8.05-1.08,2.54-2.78,4.75-5.08,6.64-2.31,1.88-5.27,3.39-8.89,4.52-3.62,1.13-7.93,1.69-12.92,1.69h-54.49v-1.69c1.79-.19,2.89-.49,3.32-.92.42-.42.64-.96.64-1.62v-65.78ZM770,1130.05c3.01,0,5.5-.07,7.48-.21,1.98-.14,3.53-.45,4.66-.92,1.13-.47,1.93-1.13,2.4-1.98.47-.85.71-1.98.71-3.39s-.24-2.54-.71-3.39c-.47-.85-1.27-1.5-2.4-1.98-1.13-.47-2.68-.78-4.66-.92-1.98-.14-4.47-.21-7.48-.21h-19.2v12.99h19.2ZM774.8,1161.39c5.08,0,8.66-.64,10.73-1.91,2.07-1.27,3.11-3.46,3.11-6.56s-1.04-5.29-3.11-6.56c-2.07-1.27-5.65-1.91-10.73-1.91h-24v16.94h24Z"/>
      <path class="cls-1" d="M853.43,1173.25c0,.47.16.82.49,1.06.33.24,1.01.35,2.05.35v1.69h-24.99v-1.69c1.03-.19,1.79-.49,2.26-.92.47-.42.94-1.2,1.41-2.33.19-.47.66-1.74,1.41-3.81.75-2.07,1.74-4.68,2.96-7.83,1.22-3.15,2.59-6.66,4.09-10.52,1.5-3.86,3.01-7.79,4.52-11.79,1.5-4,2.98-7.9,4.45-11.72,1.46-3.81,2.75-7.22,3.88-10.23,1.13-3.01,2.05-5.46,2.75-7.34.71-1.88,1.06-2.87,1.06-2.96,0-.47-.31-.8-.92-.99-.61-.19-1.25-.33-1.9-.42v-1.69h36.84v1.69c-.75.09-1.36.24-1.83.42-.47.19-.71.66-.71,1.41,0,.19.44,1.41,1.34,3.67.89,2.26,2.05,5.2,3.46,8.82,1.41,3.62,3.03,7.72,4.87,12.28,1.84,4.57,3.74,9.22,5.72,13.97,1.98,4.75,3.88,9.39,5.72,13.9,1.83,4.52,3.5,8.57,5.01,12.14.75,1.69,1.39,2.82,1.91,3.39.52.56,1.2.85,2.05.85v1.69h-27.81v-1.69c1.79-.09,2.68-.66,2.68-1.69,0-.09-.23-.73-.7-1.91-.47-1.18-.99-2.49-1.55-3.95-.56-1.46-1.11-2.84-1.62-4.16-.52-1.32-.83-2.21-.92-2.68h-33.46c-.94,2.54-1.69,4.61-2.26,6.21-.56,1.6-1.01,2.87-1.34,3.81-.33.94-.56,1.62-.71,2.05-.14.42-.21.73-.21.92ZM887.73,1148.97l-13.69-33.6-12.56,33.6h26.26Z"/>
      <path class="cls-1" d="M969.32,1172.12c0,.66.21,1.2.64,1.62.42.42,1.53.73,3.32.92v1.69h-29.08v-1.69c1.79-.19,2.89-.49,3.32-.92.42-.42.64-.96.64-1.62v-65.78c0-.66-.21-1.2-.64-1.62-.42-.42-1.53-.73-3.32-.92v-1.69h51.67c10.45,0,18.02,1.91,22.73,5.72,4.7,3.81,7.06,9.72,7.06,17.72,0,6.49-1.9,11.58-5.72,15.25-3.81,3.67-8.63,6.31-14.47,7.9l16.66,23.43c1.13,1.69,2.49,2.54,4.09,2.54v1.69h-29.36v-1.69c2.07-.09,3.11-.94,3.11-2.54,0-.19-.38-.85-1.13-1.98-.75-1.13-1.69-2.49-2.82-4.09-1.13-1.6-2.38-3.32-3.74-5.15-1.36-1.84-2.68-3.6-3.95-5.29s-2.38-3.2-3.32-4.52c-.94-1.32-1.55-2.21-1.84-2.68h-13.83v23.72ZM993.04,1133.44c4.14,0,6.99-.78,8.54-2.33,1.55-1.55,2.33-3.36,2.33-5.43s-.77-3.88-2.33-5.43c-1.55-1.55-4.4-2.33-8.54-2.33h-23.72v15.53h23.72Z"/>
    </g>
  </g>
</svg>