<?xml version="1.0" encoding="UTF-8"?>
<svg id="Layer_1" data-name="Layer 1" xmlns="http://www.w3.org/2000/svg" viewBox="0 0 2158.27 589.31">
  <defs>
    <style>
      .cls-1 {
        fill: #336054;
      }

      .cls-2 {
        fill: #d7644b;
      }
    </style>
  </defs>
  <path class="cls-2" d="M449.19,306.71l-55.75,1.14-55.75-.54-55.75,1.88-55.75-1.24-55.74.39-55.74-.4-55.73-2.45-55.98,1.14,8.46,54.52,15.48,51.82,20.37,51.16,36.71,41.15,42.37,34.9,47.95,26.99,53.69,11.28,53.93,10.87,53.93-10.91,52.36-14.46,50.06-22.61,38.69-38.96,37.18-39.88,25.34-48.48,18.83-51.7,2.73-56.15-56.14,1.81-55.76-1.25ZM41.34,375.82c-.58.83-6.57,5.63-7.47,5.89-.42.12-.9.32-1.02-.3-.11-.52,6.42-7.04,7.32-7.17.31-.05,1.54.25,1.59.31.31.46-.16.91-.41,1.26ZM51.93,386.41c-.96.83-1.88,2.09-3.1,2.81-.5.3-.78.73-1.51.54,1.09-1.09,2.31-2.02,3.37-3.15.26-.28-.02-.82.04-.87.21-.16.84-.04,1.23-.42.39-.37.37-1.18.62-1.41.07-.06.46.16.67.05.89-.48.78-1.17,2.24-.5-1,1.17-2.4,1.95-3.55,2.94ZM244.09,321.86l-.7-1.64,1.25-.78c.63.54,1.01,1.37.92,2.2l-1.47.22ZM266.36,571.39l.37-1.48-1.11.37-.3-1.25c.3-.76.98-1.09,1.78-.98l-.2.76,1.31,1.09c-1.7-.38-.42,1.03-1.85,1.48ZM273.08,397.32l-.78-2.19,1.12-.2,1.1,2.05-1.44.34ZM277.18,403.96c-.08-.05-.8-1.35-.77-1.54l1.21-.96,1.34,2.01c-.35.57-1.24.81-1.79.49ZM334.64,497.91c-.86-.87,5.26-3.99,5.2-5.19l.29,1.05-5.49,4.14ZM337.61,499.02l-1.11-.55c.56-.39,4.33-4.81,4.82-4.27.49,2.62-4.1,2.4-3.71,4.82ZM345.16,509.92c.74-.78,2.53-2.38,3.4-3.1.42-.34.6-.9,1.3-.74.16.75-.16.99-.54,1.5-.49.67-5.17,5.37-5.77,4.81.13-.77,1.09-1.91,1.61-2.47ZM349.62,512.14c-.55.53-3.36,3.82-4.21,3.21-.15-.11-.41-1.39-.21-1.84.41-.92,4.79-4.56,5.93-5.2,2.15,1.9-.29,2.64-1.51,3.83ZM421.19,444.29c.61-.54,2.45-3.03,3.23-2.73l1.1,2.33c-1.7,1.51-2.84,3.42-4.32.39ZM548.02,340.35l.78.39.33,1.09c-.96.52-2,1.82-2.73,2.33-1.32.91-3.83,1.92-5.06,2.14l-.41,1.28-3.65,1.17,10.74-8.39ZM513.53,455.24l.38,1.85c-1.96.02-4.95,5-5.41.73.86-.27,4.45-3.19,5.03-2.58ZM3.97,276.84l-.53-39.61,11.04-43.37,39.58,16.28,36.76,31.81,30.54,39.1-59.23,1.39-58.16-5.6ZM107.44,211.77l26.62,40.66,11.38,30.68,78.47-.91-31.11-50.58-42.73-38.24-35.36-27.52-37.93-24.6-17.05-27.64-31.72,56.93,38.3,15.04,41.12,26.18ZM182.84,255.6l.2,1.84c-.53.68-1.1,1.29-2.05,1.13.06-1.32.15-2.78,1.85-2.96ZM163.73,216.64l1.3,1.65c-1.58,1.9-3.24-.29-1.3-1.65ZM161.69,219.61c-.33,1.83-1.36,3.22-3.34,3.34-.77-2.24,1.16-4.02,3.34-3.34ZM144.75,210.73c1.43.93.18,2.02-1.04,2.19l-.95-1.84,1.99-.35ZM57.34,164.34c-.54.82-2.98,3.01-3.85,3.75-.2.17-1.28.97-1.34.89-.11-.56.06-.87.35-1.32.21-.33,4.34-4.22,4.66-4.24.32-.02.56.35.19.92ZM134.33,143.56l34.57,25.74,50.02,47.59,25.91,66.05,43.11-5.7-11.04-42.94-22.98-41.25-32.85-34.19-38.35-47.95-26.62-55.64-2.27-20.48-42.35,20.47-31.42,35.22,19.16,28.82,35.09,24.25ZM139.2,70.29c.75-.79.21-1.54,2.03-2.05.43-.12.53-.41.91.17.91,1.39.82,3.2-.19,4.45l-.92-.74c-.9,2.25-2.53,2.2-4.39,3.4-1,.64-1.63,1.79-2.85,2.16l-.18-1.5c1.71-2.12,3.7-3.95,5.58-5.9ZM124.33,57.28c1.17-1.22,3.51-3.35,4.82-4.46.42-.35.6-.9,1.3-.74l-6.8,7.67-1.36.49c-.27-.25,1.76-2.67,2.04-2.96ZM180.5,20.56l42.35-13.36,45.37-7.2-4.66,26.98,8.4,59.16,9.98,58.89,10.35,58.82-3.53.53-47.49-63.71-39.34-55.94-21.43-64.16ZM297.43,2.02l-4.67,56.33,13.25,55.58,1.86,24.25,22.06-41.43,30.91-37.1,43.39-31.78-54.67-18.43L294.28.7l3.16,1.31ZM327.41,53.74c1.1.98.75,2.92-.92,2.58l-.35-1.61,1.27-.98ZM326.13,49.78l-1.51.62.19,1.48c-.84-.39-2.92-1.7-2.75-2.73.07-.41,3.44-3.12,3.67-2.83l.4,3.46ZM322.39,39.63l1.13.17c.37.3.42.67.37,1.11-.08.81-4.58,4.34-5.21,3.91l-.22-1.86,4.25-2.65-.33-.69ZM346.36,117.36l-19.19,45.75-3.3,13.11.74-.4c.37,1.37.19,1.73-.92,2.59l-.25-.46-8.37,33.29,2.81.43-2.12,47.06-2.21,20.75,1.06.05-.41-.07,34.92-1.17,15.84-54.49,27.95-50.74,42.17-39.77,45.23-52-52.21-36.15-44.8,39.44-36.95,32.77ZM406.1,103.84c1.12-1.09,3.66-3.03,5-3.9,1.07-.7,1.09-.3,1.31.93l-7.25,4.44c-.13-.74.5-1.04.94-1.47ZM401.38,83.84l.64,1.81-3.17,1.85-.57-2.24,3.1-1.41ZM416.36,187.16l-27.02,43.1-10.04,47.62,45.99,3.58,31.08-49.3-.39-1.93,2.69-1.71,1.36-2.16,52-37.59,29.88-15.28-44.66-73.16-43.97,52.39-36.91,34.43ZM529.82,165.45l.81,2.72-1.66.6-1.32-2.01,2.17-1.31ZM525.4,159.28c2.35,1.23-.38,3.36-1.42,2.75-.08-.04-.8-1.39-.77-1.57.08-.52,1.56-1.52,2.19-1.19ZM444.61,202.46c-.65.36-.65.65-1.22-.12l4.49-3.3,1.45-.59c-1.22,1.29-3.2,3.17-4.71,4.01ZM470.1,203.46c0,1.3-17.5,12.41-20.03,13.54-.17-.73.38-.88.77-1.26,4.59-4.47,11.46-8.57,16.81-12.15.87-.58.65-2.15,2.45-.13ZM461.2,187.69c.64.55-.48.81-.7.96-1.41.99-3.25,2.17-4.87,2.75.35-.82,5.2-4.02,5.56-3.71ZM493.42,230.12l57.52-32.35,9.03,80.68-52.23,1.54-53.46.98,39.14-50.85ZM323.88,176.22l-.43,1.73-.62-1.15,1.05-.58ZM449.19,306.71l-55.75,1.14-55.75-.54-55.75,1.88-55.75-1.24-55.74.39-55.74-.4-55.73-2.45-55.98,1.14,8.46,54.52,15.48,51.82,20.37,51.16,36.71,41.15,42.37,34.9,47.95,26.99,53.69,11.28,53.93,10.87,53.93-10.91,52.36-14.46,50.06-22.61,38.69-38.96,37.18-39.88,25.34-48.48,18.83-51.7,2.73-56.15-56.14,1.81-55.76-1.25ZM41.34,375.82c-.58.83-6.57,5.63-7.47,5.89-.42.12-.9.32-1.02-.3-.11-.52,6.42-7.04,7.32-7.17.31-.05,1.54.25,1.59.31.31.46-.16.91-.41,1.26ZM51.93,386.41c-.96.83-1.88,2.09-3.1,2.81-.5.3-.78.73-1.51.54,1.09-1.09,2.31-2.02,3.37-3.15.26-.28-.02-.82.04-.87.21-.16.84-.04,1.23-.42.39-.37.37-1.18.62-1.41.07-.06.46.16.67.05.89-.48.78-1.17,2.24-.5-1,1.17-2.4,1.95-3.55,2.94ZM244.09,321.86l-.7-1.64,1.25-.78c.63.54,1.01,1.37.92,2.2l-1.47.22ZM266.36,571.39l.37-1.48-1.11.37-.3-1.25c.3-.76.98-1.09,1.78-.98l-.2.76,1.31,1.09c-1.7-.38-.42,1.03-1.85,1.48ZM273.08,397.32l-.78-2.19,1.12-.2,1.1,2.05-1.44.34ZM277.18,403.96c-.08-.05-.8-1.35-.77-1.54l1.21-.96,1.34,2.01c-.35.57-1.24.81-1.79.49ZM334.64,497.91c-.86-.87,5.26-3.99,5.2-5.19l.29,1.05-5.49,4.14ZM337.61,499.02l-1.11-.55c.56-.39,4.33-4.81,4.82-4.27.49,2.62-4.1,2.4-3.71,4.82ZM345.16,509.92c.74-.78,2.53-2.38,3.4-3.1.42-.34.6-.9,1.3-.74.16.75-.16.99-.54,1.5-.49.67-5.17,5.37-5.77,4.81.13-.77,1.09-1.91,1.61-2.47ZM349.62,512.14c-.55.53-3.36,3.82-4.21,3.21-.15-.11-.41-1.39-.21-1.84.41-.92,4.79-4.56,5.93-5.2,2.15,1.9-.29,2.64-1.51,3.83ZM421.19,444.29c.61-.54,2.45-3.03,3.23-2.73l1.1,2.33c-1.7,1.51-2.84,3.42-4.32.39ZM548.02,340.35l.78.39.33,1.09c-.96.52-2,1.82-2.73,2.33-1.32.91-3.83,1.92-5.06,2.14l-.41,1.28-3.65,1.17,10.74-8.39ZM513.53,455.24l.38,1.85c-1.96.02-4.95,5-5.41.73.86-.27,4.45-3.19,5.03-2.58Z"/>
  <g>
    <g>
      <path class="cls-1" d="M1068.74,346.94h-155.44v-92.27h-31.59v92.27h-155.44V56.01h155.44v92.27h31.59V56.01h155.44v290.93Z"/>
      <path class="cls-1" d="M1430.28,160.61c0,15.06-1.88,35.76-4.24,43.29h-163.27c2.35,18.35,19.29,24,62.11,24,32.94,0,56.93-3.29,88.93-11.29l4.7,127.98c-34.82,7.53-73.87,11.76-117.63,11.76-143.98,0-203.27-46.11-203.27-157.16s54.11-153.39,175.98-153.39c107.28,0,156.68,36.23,156.68,114.81ZM1261.36,167.2h39.52c-.47-30.11-4.71-38.58-19.76-38.58s-19.29,8.47-19.76,38.58Z"/>
      <path class="cls-1" d="M1663.91,56.01c104.32,0,135.07,17.46,135.07,76.47,0,39.9-14.13,58.19-51.54,67.33v2.08c45.72,8.31,61.93,26.6,61.93,68.99,0,59.02-31.17,76.06-139.65,76.06h-212.8V56.01h206.98ZM1612.37,123.75v47.38h6.65c20.78,0,28.26-6.23,28.26-23.69s-7.48-23.69-28.26-23.69h-6.65ZM1612.37,232.23v47.38h6.65c20.78,0,28.26-6.23,28.26-23.69s-7.48-23.69-28.26-23.69h-6.65Z"/>
      <path class="cls-1" d="M2158.27,160.61c0,15.06-1.88,35.76-4.24,43.29h-163.27c2.35,18.35,19.29,24,62.11,24,32.94,0,56.93-3.29,88.93-11.29l4.7,127.98c-34.82,7.53-73.87,11.76-117.63,11.76-143.98,0-203.27-46.11-203.27-157.16s54.11-153.39,175.98-153.39c107.28,0,156.68,36.23,156.68,114.81ZM1989.35,167.2h39.52c-.47-30.11-4.71-38.58-19.76-38.58s-19.29,8.47-19.76,38.58Z"/>
    </g>
    <g>
      <path class="cls-1" d="M1018.58,483.22c.11-.34.2-.7.25-1.1.05-.39.08-.87.08-1.43,0-.9-.76-1.79-2.27-2.69-1.52-.9-3.54-1.71-6.06-2.44-2.53-.73-5.42-1.35-8.67-1.85-3.26-.5-6.68-.76-10.27-.76-3.37,0-6.91.39-10.61,1.18-3.7.79-7.1,2.08-10.19,3.87-3.09,1.8-5.62,4.18-7.58,7.16-1.97,2.98-2.95,6.6-2.95,10.86s.98,7.89,2.95,10.86c1.96,2.98,4.49,5.36,7.58,7.16,3.09,1.8,6.48,3.09,10.19,3.87,3.7.79,7.24,1.18,10.61,1.18,1.46,0,3.76-.25,6.9-.76,3.14-.51,6.29-1.21,9.43-2.11,3.14-.9,5.92-1.91,8.34-3.03,2.41-1.12,3.62-2.3,3.62-3.54,0-.56-.11-1.01-.34-1.35-.23-.34-.45-.73-.67-1.18l1.85-1.18,17.34,26.44-2.02,1.18c-.23-.56-.54-.93-.93-1.09-.39-.17-.87-.25-1.43-.25-.79,0-2.36.48-4.71,1.43-2.36.96-5.42,1.97-9.18,3.03-3.76,1.07-8.17,2.02-13.22,2.86-5.05.84-10.72,1.26-17.01,1.26-6.74,0-13.42-.87-20.04-2.61-6.63-1.74-12.58-4.49-17.85-8.25-5.28-3.76-9.54-8.47-12.8-14.15-3.26-5.67-4.88-12.26-4.88-19.79s1.63-14.12,4.88-19.79c3.26-5.67,7.52-10.38,12.8-14.15,5.28-3.76,11.23-6.59,17.85-8.5,6.62-1.91,13.3-2.86,20.04-2.86s12.55.37,17.43,1.1c4.88.73,9.01,1.55,12.38,2.44,3.25.9,5.78,1.66,7.58,2.27,1.79.62,3.14.93,4.04.93,1.01,0,1.85-.45,2.53-1.35l1.85.51-15.16,27.79-1.69-1.18Z"/>
      <path class="cls-1" d="M1086.28,536.6c0,.56.19.98.59,1.26.39.28,1.2.42,2.44.42v2.02h-29.81v-2.02c1.23-.22,2.13-.59,2.7-1.09.56-.51,1.12-1.43,1.68-2.78.23-.56.79-2.08,1.69-4.55.9-2.47,2.08-5.58,3.54-9.35,1.46-3.76,3.09-7.94,4.88-12.55,1.79-4.6,3.59-9.29,5.39-14.06,1.79-4.77,3.56-9.43,5.3-13.98,1.74-4.55,3.28-8.61,4.63-12.21,1.35-3.59,2.44-6.51,3.28-8.76.84-2.24,1.26-3.42,1.26-3.54,0-.56-.37-.95-1.1-1.18-.73-.22-1.49-.39-2.27-.51v-2.02h43.95v2.02c-.9.11-1.63.28-2.19.51-.56.23-.84.79-.84,1.68,0,.23.53,1.68,1.6,4.38,1.07,2.69,2.44,6.2,4.13,10.53,1.68,4.32,3.62,9.21,5.81,14.65,2.19,5.45,4.46,11,6.82,16.67,2.36,5.67,4.63,11.2,6.82,16.59,2.19,5.39,4.18,10.22,5.98,14.48.9,2.02,1.66,3.37,2.27,4.04.61.67,1.43,1.01,2.44,1.01v2.02h-33.18v-2.02c2.13-.11,3.2-.78,3.2-2.02,0-.11-.28-.87-.84-2.27-.56-1.4-1.18-2.97-1.85-4.72-.67-1.74-1.32-3.39-1.94-4.97-.62-1.57-.99-2.64-1.1-3.2h-39.91c-1.13,3.03-2.02,5.5-2.7,7.41-.67,1.91-1.21,3.43-1.6,4.55-.4,1.12-.67,1.94-.84,2.44-.17.51-.25.87-.25,1.1ZM1127.2,507.64l-16.33-40.08-14.99,40.08h31.32Z"/>
      <path class="cls-1" d="M1280.44,476.31c-.23-1.57-.56-2.64-1.01-3.2-.45-.56-1.12-.84-2.02-.84h-55.57v14.99h37.39c.9,0,1.57-.25,2.02-.76.45-.51.78-1.54,1.01-3.11h2.02v28.29h-2.02c-.23-1.91-.56-3.14-1.01-3.7-.45-.56-1.13-.84-2.02-.84h-37.39v28.12c0,.79.25,1.43.76,1.94.51.5,1.82.87,3.96,1.09v2.02h-35.36v-2.02c2.13-.22,3.45-.59,3.96-1.09.51-.51.76-1.15.76-1.94v-78.48c0-.78-.25-1.43-.76-1.94-.51-.5-1.83-.87-3.96-1.09v-2.02h86.22c.9,0,1.57-.31,2.02-.93.45-.62.79-1.88,1.01-3.79h2.02v29.3h-2.02Z"/>
      <path class="cls-1" d="M1376.6,507.97c-.23-1.12-.7-2.05-1.43-2.78-.73-.73-1.94-1.09-3.62-1.09h-31.32v15.66h54.06c.9,0,1.57-.31,2.02-.93.45-.62.78-1.99,1.01-4.13h2.02v28.8h-2.02c-.23-1.46-.56-2.36-1.01-2.69-.45-.34-1.13-.51-2.02-.51h-84.03v-2.02c2.13-.22,3.45-.59,3.96-1.09.51-.51.76-1.15.76-1.94v-78.48c0-.78-.25-1.43-.76-1.94-.51-.5-1.83-.87-3.96-1.09v-2.02h84.03c.9,0,1.57-.31,2.02-.93.45-.62.78-1.88,1.01-3.79h2.02v29.3h-2.02c-.23-1.91-.56-3.17-1.01-3.79-.45-.62-1.13-.93-2.02-.93h-54.06v13.98h31.32c1.68,0,2.89-.36,3.62-1.1s1.2-1.66,1.43-2.78h2.02v26.27h-2.02Z"/>
      <path class="cls-1" d="M1504.24,476.82c0,1.57.39,3.17,1.18,4.8.79,1.63,1.82,3.09,3.12,4.38,1.29,1.29,2.75,2.36,4.38,3.2,1.63.84,3.22,1.26,4.8,1.26,1.35,0,2.02-.78,2.02-2.36h2.36v15.16h-2.36c0-1.57-.67-2.36-2.02-2.36-1.68,0-3.31.34-4.88,1.01-1.57.67-3.01,1.63-4.29,2.86-1.29,1.24-2.33,2.67-3.12,4.29-.79,1.63-1.18,3.4-1.18,5.31,0,1.35.73,2.02,2.19,2.02v2.36h-14.99v-2.36c1.57,0,2.36-.67,2.36-2.02,0-1.8-.42-3.54-1.26-5.22-.84-1.68-1.94-3.11-3.28-4.29-1.35-1.18-2.83-2.13-4.46-2.86-1.63-.73-3.17-1.1-4.63-1.1-1.35,0-2.02.79-2.02,2.36h-2.36v-15.16h2.36c0,1.57.67,2.36,2.02,2.36,1.46,0,3-.42,4.63-1.26,1.63-.84,3.12-1.91,4.46-3.2,1.35-1.29,2.44-2.75,3.28-4.38.84-1.63,1.26-3.23,1.26-4.8,0-1.35-.79-2.02-2.36-2.02v-2.36h14.99v2.36c-1.46,0-2.19.67-2.19,2.02Z"/>
      <path class="cls-1" d="M1596.69,456.78c0-.78-.25-1.43-.76-1.94-.51-.5-1.83-.87-3.96-1.09v-2.02h64.16c4.6,0,8.81.45,12.63,1.35,3.82.9,7.13,2.27,9.94,4.13,2.81,1.85,4.99,4.27,6.57,7.24,1.57,2.98,2.36,6.54,2.36,10.69,0,5.05-1.52,9.12-4.55,12.21-3.03,3.09-6.91,5.14-11.62,6.15v.34c5.72,1.57,10.41,3.99,14.06,7.24,3.65,3.26,5.47,8.03,5.47,14.31,0,3.37-.65,6.57-1.94,9.6-1.29,3.03-3.31,5.67-6.06,7.92-2.75,2.25-6.29,4.04-10.61,5.39-4.32,1.35-9.46,2.02-15.41,2.02h-65v-2.02c2.13-.22,3.45-.59,3.96-1.09.51-.51.76-1.15.76-1.94v-78.48ZM1644.85,485.07c3.59,0,6.57-.08,8.93-.25,2.36-.17,4.21-.53,5.56-1.1,1.35-.56,2.3-1.35,2.86-2.36.56-1.01.84-2.36.84-4.04s-.28-3.03-.84-4.04c-.56-1.01-1.52-1.79-2.86-2.36-1.35-.56-3.2-.93-5.56-1.1-2.36-.17-5.34-.25-8.93-.25h-22.9v15.49h22.9ZM1650.58,522.46c6.06,0,10.33-.76,12.8-2.27,2.47-1.52,3.7-4.13,3.7-7.83s-1.24-6.32-3.7-7.83c-2.47-1.52-6.74-2.27-12.8-2.27h-28.63v20.21h28.63Z"/>
      <path class="cls-1" d="M1744.38,536.6c0,.56.19.98.59,1.26.39.28,1.2.42,2.44.42v2.02h-29.81v-2.02c1.23-.22,2.13-.59,2.7-1.09.56-.51,1.12-1.43,1.68-2.78.23-.56.79-2.08,1.69-4.55.9-2.47,2.08-5.58,3.54-9.35,1.46-3.76,3.09-7.94,4.88-12.55,1.79-4.6,3.59-9.29,5.39-14.06,1.79-4.77,3.56-9.43,5.3-13.98,1.74-4.55,3.28-8.61,4.63-12.21,1.35-3.59,2.44-6.51,3.28-8.76.84-2.24,1.26-3.42,1.26-3.54,0-.56-.37-.95-1.1-1.18-.73-.22-1.49-.39-2.27-.51v-2.02h43.95v2.02c-.9.11-1.63.28-2.19.51-.56.23-.84.79-.84,1.68,0,.23.53,1.68,1.6,4.38,1.07,2.69,2.44,6.2,4.13,10.53,1.68,4.32,3.62,9.21,5.81,14.65,2.19,5.45,4.46,11,6.82,16.67,2.36,5.67,4.63,11.2,6.82,16.59,2.19,5.39,4.18,10.22,5.98,14.48.9,2.02,1.66,3.37,2.27,4.04.61.67,1.43,1.01,2.44,1.01v2.02h-33.18v-2.02c2.13-.11,3.2-.78,3.2-2.02,0-.11-.28-.87-.84-2.27-.56-1.4-1.18-2.97-1.85-4.72-.67-1.74-1.32-3.39-1.94-4.97-.62-1.57-.99-2.64-1.1-3.2h-39.91c-1.13,3.03-2.02,5.5-2.7,7.41-.67,1.91-1.21,3.43-1.6,4.55-.4,1.12-.67,1.94-.84,2.44-.17.51-.25.87-.25,1.1ZM1785.3,507.64l-16.33-40.08-14.99,40.08h31.32Z"/>
      <path class="cls-1" d="M1882.63,535.25c0,.79.25,1.43.76,1.94.51.5,1.82.87,3.96,1.09v2.02h-34.69v-2.02c2.13-.22,3.45-.59,3.96-1.09.51-.51.76-1.15.76-1.94v-78.48c0-.78-.25-1.43-.76-1.94-.51-.5-1.83-.87-3.96-1.09v-2.02h61.64c12.46,0,21.5,2.27,27.11,6.82,5.61,4.55,8.42,11.59,8.42,21.13,0,7.75-2.27,13.81-6.82,18.19-4.55,4.38-10.3,7.52-17.26,9.43l19.87,27.95c1.35,2.02,2.97,3.03,4.88,3.03v2.02h-35.03v-2.02c2.47-.11,3.71-1.12,3.71-3.03,0-.22-.45-1.01-1.35-2.36-.9-1.35-2.02-2.97-3.37-4.88-1.35-1.91-2.84-3.96-4.46-6.15-1.63-2.19-3.2-4.29-4.72-6.32s-2.84-3.81-3.96-5.39c-1.13-1.57-1.85-2.64-2.19-3.2h-16.5v28.29ZM1910.93,489.11c4.94,0,8.34-.93,10.19-2.78,1.85-1.85,2.78-4.01,2.78-6.48s-.92-4.63-2.78-6.48c-1.85-1.85-5.25-2.78-10.19-2.78h-28.29v18.52h28.29Z"/>
    </g>
  </g>
</svg>