<?xml version="1.0" encoding="UTF-8"?>
<svg id="Layer_1" data-name="Layer 1" xmlns="http://www.w3.org/2000/svg" viewBox="0 0 1007.27 1062.17">
  <defs>
    <style>
      .cls-1 {
        fill: #fef2da;
      }
    </style>
  </defs>
  <path class="cls-1" d="M805.56,552.82l-100.48,2.06-100.48-.98-100.48,3.38-100.48-2.23-100.47.7-100.46-.73-100.45-4.42-100.89,2.05,15.25,98.26,27.89,93.4,36.72,92.21,66.17,74.18,76.37,62.9,86.43,48.64,96.77,20.33,97.21,19.6,97.2-19.67,94.37-26.07,90.23-40.75,69.73-70.22,67.02-71.88,45.68-87.37,33.94-93.19,4.92-101.2-101.19,3.26-100.51-2.25ZM70.46,677.38c-1.04,1.5-11.85,10.15-13.47,10.62-.76.22-1.62.58-1.85-.54-.19-.95,11.58-12.68,13.19-12.92.55-.08,2.78.45,2.86.57.57.83-.29,1.63-.74,2.27ZM89.55,696.47c-1.73,1.5-3.38,3.76-5.59,5.07-.9.53-1.4,1.31-2.73.98,1.96-1.96,4.17-3.64,6.07-5.68.47-.5-.04-1.48.07-1.57.38-.29,1.52-.08,2.22-.75.7-.67.67-2.13,1.11-2.55.12-.11.83.28,1.2.08,1.61-.86,1.4-2.11,4.04-.89-1.79,2.11-4.33,3.51-6.39,5.31ZM435.91,580.11l-1.26-2.95,2.25-1.4c1.14.97,1.83,2.46,1.66,3.97l-2.65.39ZM476.03,1029.87l.66-2.67-2,.67-.54-2.24c.55-1.37,1.77-1.97,3.21-1.77l-.36,1.36,2.36,1.97c-3.07-.69-.76,1.85-3.34,2.68ZM488.14,716.12l-1.41-3.95,2.02-.37,1.99,3.7-2.6.61ZM495.54,728.09c-.14-.08-1.44-2.43-1.38-2.78l2.19-1.73,2.42,3.63c-.63,1.02-2.23,1.46-3.23.88ZM599.11,897.44c-1.55-1.57,9.48-7.18,9.37-9.35l.53,1.89-9.9,7.46ZM604.46,899.44l-1.99-1c1.01-.69,7.8-8.67,8.68-7.69.88,4.73-7.4,4.33-6.69,8.68ZM618.07,919.08c1.33-1.41,4.55-4.3,6.12-5.59.75-.62,1.08-1.62,2.34-1.33.29,1.35-.3,1.79-.97,2.7-.89,1.2-9.32,9.68-10.4,8.66.24-1.39,1.96-3.44,2.91-4.44ZM626.1,923.09c-.98.96-6.06,6.88-7.58,5.79-.27-.2-.73-2.5-.37-3.32.73-1.66,8.63-8.23,10.68-9.38,3.87,3.42-.52,4.76-2.73,6.91ZM755.1,800.79c1.11-.97,4.42-5.46,5.81-4.92l1.98,4.2c-3.06,2.73-5.13,6.16-7.79.71ZM983.71,613.45l1.4.7.6,1.96c-1.73.93-3.61,3.28-4.92,4.19-2.37,1.65-6.91,3.46-9.11,3.85l-.74,2.3-6.59,2.11,19.36-15.11ZM921.53,820.52l.68,3.34c-3.53.04-8.92,9.01-9.75,1.32,1.56-.49,8.02-5.74,9.07-4.66ZM3.11,498.97l-.96-71.39,19.89-78.17,71.34,29.34,66.26,57.33,55.05,70.48-106.76,2.5-104.82-10.1ZM189.61,381.7l47.98,73.29,20.51,55.31,141.44-1.64-56.07-91.17-77.01-68.93-63.74-49.61-68.36-44.35-30.73-49.81-57.17,102.61,69.03,27.11,74.12,47.19ZM325.51,460.7l.37,3.31c-.96,1.22-1.99,2.32-3.7,2.03.11-2.38.27-5.02,3.34-5.34ZM291.06,390.48l2.34,2.98c-2.85,3.42-5.85-.52-2.34-2.98ZM287.38,395.82c-.59,3.3-2.46,5.8-6.02,6.02-1.38-4.03,2.09-7.24,6.02-6.02ZM256.85,379.82c2.57,1.67.32,3.64-1.87,3.94l-1.71-3.32,3.58-.62ZM99.29,296.2c-.97,1.48-5.37,5.42-6.94,6.76-.35.3-2.3,1.75-2.42,1.6-.19-1.01.11-1.56.63-2.37.38-.59,7.83-7.61,8.39-7.65.57-.04,1.01.64.34,1.66ZM238.06,258.75l62.31,46.39,90.16,85.78,46.69,119.05,77.71-10.27-19.89-77.4-41.42-74.36-59.2-61.63-69.12-86.42-47.98-100.28-4.1-36.9-76.33,36.9-56.63,63.48,34.54,51.94,63.25,43.7ZM246.84,126.69c1.36-1.42.38-2.78,3.66-3.69.78-.22.96-.74,1.64.31,1.63,2.5,1.47,5.76-.34,8.02l-1.66-1.33c-1.61,4.05-4.55,3.96-7.91,6.13-1.8,1.16-2.94,3.23-5.13,3.89l-.32-2.71c3.09-3.81,6.67-7.11,10.06-10.64ZM220.04,103.25c2.1-2.19,6.32-6.04,8.69-8.03.75-.63,1.09-1.62,2.34-1.33l-12.25,13.82-2.46.89c-.48-.44,3.18-4.82,3.68-5.34ZM321.27,37.05l76.33-24.08L479.39,0l-8.4,48.62,15.14,106.63,17.98,106.15,18.66,106.02-6.37.95-85.6-114.83-70.9-100.83-38.63-115.65ZM532.05,3.63l-8.42,101.53,23.89,100.17,3.36,43.72,39.76-74.67,55.72-66.88,78.21-57.27-98.53-33.22-99.67-15.74,5.69,2.36ZM586.07,96.86c1.99,1.76,1.34,5.26-1.66,4.66l-.62-2.9,2.29-1.76ZM583.77,89.72l-2.73,1.12.34,2.66c-1.52-.71-5.25-3.06-4.95-4.92.12-.73,6.19-5.63,6.61-5.11l.72,6.24ZM577.03,71.44l2.04.3c.66.53.75,1.21.67,2.01-.15,1.45-8.26,7.82-9.38,7.04l-.39-3.35,7.66-4.77-.59-1.24ZM620.23,211.52l-34.58,82.46-5.94,23.64,1.33-.73c.67,2.47.34,3.12-1.67,4.67l-.45-.83-15.08,60.01,5.07.77-3.83,84.82-3.98,37.4,1.91.09-.73-.13,62.94-2.1,28.54-98.22,50.39-91.45,76.01-71.68,81.53-93.72-94.11-65.16-80.74,71.09-66.61,59.07ZM727.9,187.16c2.02-1.97,6.6-5.47,9.02-7.04,1.93-1.26,1.96-.55,2.36,1.68l-13.07,8.01c-.24-1.34.9-1.88,1.69-2.65ZM719.41,151.12l1.16,3.25-5.72,3.33-1.03-4.04,5.59-2.55ZM746.41,337.35l-48.7,77.69-18.1,85.83,82.89,6.45,56.02-88.85-.71-3.47,4.84-3.09,2.45-3.89,93.72-67.75,53.86-27.54-80.5-131.87-79.25,94.42-66.52,62.05ZM950.9,298.22l1.45,4.91-3,1.08-2.37-3.62,3.92-2.36ZM942.94,287.08c4.23,2.22-.69,6.06-2.56,4.96-.14-.08-1.44-2.51-1.39-2.83.15-.93,2.82-2.73,3.95-2.14ZM797.32,364.92c-1.17.65-1.16,1.17-2.2-.22l8.09-5.94,2.61-1.06c-2.19,2.32-5.76,5.72-8.49,7.22ZM843.26,366.72c0,2.34-31.53,22.37-36.1,24.41-.31-1.32.68-1.58,1.39-2.28,8.28-8.05,20.65-15.45,30.3-21.9,1.57-1.05,1.18-3.88,4.41-.24ZM827.21,338.3c1.15,1-.87,1.46-1.25,1.73-2.54,1.78-5.85,3.91-8.78,4.95.64-1.48,9.38-7.25,10.03-6.68ZM885.3,414.77l103.67-58.31,16.28,145.42-94.14,2.78-96.36,1.76,70.55-91.66ZM579.71,317.62l-.78,3.11-1.12-2.07,1.9-1.04ZM805.56,552.82l-100.48,2.06-100.48-.98-100.48,3.38-100.48-2.23-100.47.7-100.46-.73-100.45-4.42-100.89,2.05,15.25,98.26,27.89,93.4,36.72,92.21,66.17,74.18,76.37,62.9,86.43,48.64,96.77,20.33,97.21,19.6,97.2-19.67,94.37-26.07,90.23-40.75,69.73-70.22,67.02-71.88,45.68-87.37,33.94-93.19,4.92-101.2-101.19,3.26-100.51-2.25ZM70.46,677.38c-1.04,1.5-11.85,10.15-13.47,10.62-.76.22-1.62.58-1.85-.54-.19-.95,11.58-12.68,13.19-12.92.55-.08,2.78.45,2.86.57.57.83-.29,1.63-.74,2.27ZM89.55,696.47c-1.73,1.5-3.38,3.76-5.59,5.07-.9.53-1.4,1.31-2.73.98,1.96-1.96,4.17-3.64,6.07-5.68.47-.5-.04-1.48.07-1.57.38-.29,1.52-.08,2.22-.75.7-.67.67-2.13,1.11-2.55.12-.11.83.28,1.2.08,1.61-.86,1.4-2.11,4.04-.89-1.79,2.11-4.33,3.51-6.39,5.31ZM435.91,580.11l-1.26-2.95,2.25-1.4c1.14.97,1.83,2.46,1.66,3.97l-2.65.39ZM476.03,1029.87l.66-2.67-2,.67-.54-2.24c.55-1.37,1.77-1.97,3.21-1.77l-.36,1.36,2.36,1.97c-3.07-.69-.76,1.85-3.34,2.68ZM488.14,716.12l-1.41-3.95,2.02-.37,1.99,3.7-2.6.61ZM495.54,728.09c-.14-.08-1.44-2.43-1.38-2.78l2.19-1.73,2.42,3.63c-.63,1.02-2.23,1.46-3.23.88ZM599.11,897.44c-1.55-1.57,9.48-7.18,9.37-9.35l.53,1.89-9.9,7.46ZM604.46,899.44l-1.99-1c1.01-.69,7.8-8.67,8.68-7.69.88,4.73-7.4,4.33-6.69,8.68ZM618.07,919.08c1.33-1.41,4.55-4.3,6.12-5.59.75-.62,1.08-1.62,2.34-1.33.29,1.35-.3,1.79-.97,2.7-.89,1.2-9.32,9.68-10.4,8.66.24-1.39,1.96-3.44,2.91-4.44ZM626.1,923.09c-.98.96-6.06,6.88-7.58,5.79-.27-.2-.73-2.5-.37-3.32.73-1.66,8.63-8.23,10.68-9.38,3.87,3.42-.52,4.76-2.73,6.91ZM755.1,800.79c1.11-.97,4.42-5.46,5.81-4.92l1.98,4.2c-3.06,2.73-5.13,6.16-7.79.71ZM983.71,613.45l1.4.7.6,1.96c-1.73.93-3.61,3.28-4.92,4.19-2.37,1.65-6.91,3.46-9.11,3.85l-.74,2.3-6.59,2.11,19.36-15.11ZM921.53,820.52l.68,3.34c-3.53.04-8.92,9.01-9.75,1.32,1.56-.49,8.02-5.74,9.07-4.66Z"/>
</svg>